<svg width="200" height="60" xmlns="http://www.w3.org/2000/svg">
  <!-- Cleaning tools icon -->
  <g transform="translate(0, 10)">
    <path d="M15,5 C15,2.5 20,0 25,0 C30,0 35,2.5 35,5 L35,20 C35,22.5 30,25 25,25 C20,25 15,22.5 15,20 Z" fill="#004C99"/>
    <rect x="22" y="25" width="6" height="15" fill="#004C99"/>
    <path d="M40,15 L50,5 L55,10 L45,20 Z" fill="#004C99"/>
    <path d="M10,15 L0,5 L5,0 L15,10 Z" fill="#004C99"/>
    <circle cx="5" cy="25" r="5" fill="#8BC53F"/>
    <circle cx="45" cy="25" r="5" fill="#8BC53F"/>
  </g>
  
  <!-- Text "Safai Sathi" -->
  <text x="60" y="30" font-family="Montserrat, sans-serif" font-size="24" font-weight="bold" fill="#004C99">Safai Sathi</text>
  
  <!-- Tagline -->
  <text x="60" y="45" font-family="Montserrat, sans-serif" font-size="10" fill="#333">Jab Safai Ki Ho Baat, To Safai Sathi Apke Sath!</text>
  
  <!-- Green swoosh -->
  <path d="M0,40 Q50,60 100,40 T200,40" stroke="#8BC53F" stroke-width="3" fill="none"/>
</svg>

